<?xml version="1.0" encoding="UTF-8"?>
<svg id="Layer_1" data-name="Layer 1" xmlns="http://www.w3.org/2000/svg" viewBox="0 0 283.46 283.46">
  <defs>
    <style>
      .cls-1 {
        fill: #fff;
      }

      .cls-2 {
        opacity: .8;
      }

      .cls-3 {
        fill: #5e4234;
      }
    </style>
  </defs>
  <rect class="cls-3" x="-14.17" y="-14.17" width="311.81" height="311.81"/>
  <g class="cls-2">
    <g>
      <path class="cls-1" d="M104.26,129.61v29.65h-5.85v-12.93h-14.9v12.93h-5.85v-29.65h5.85v11.35h14.9v-11.35h5.85Z"/>
      <path class="cls-1" d="M206.64,150.05c0,6.21-4.98,9.84-14.35,9.84-3.68,0-7.95-.63-9.8-1.42v-28.86h12.41c5.81,0,9.09,3,9.09,7.47,0,2.21-1.26,4.47-3,5.49,2.97.83,5.65,3.44,5.65,7.47ZM194.51,134.67h-6.37v6.52h6.44c2.61,0,3.68-1.54,3.68-3.32s-1.07-3.2-3.75-3.2ZM200.79,150.01c0-2.29-1.46-4.15-4.66-4.15h-7.99v8.38c1.19.4,3.28.59,4.82.59,5.85,0,7.83-2.02,7.83-4.82Z"/>
    </g>
    <path class="cls-1" d="M156.12,175.41c-1.27,4.44-2.4,8.17.27,12.46.27.43.08,1.22-.19,1.72-2.21,4.24-3.77,9.19-5.95,13.44-.73,1.41-1.81,1.53-3.94,1.31-1.38-.14-2.75-.22-4.13-.22-.02,0-.04,0-.06,0-1.38,0-2.76.08-4.13.22-2.12.22-3.21.1-3.94-1.31-2.18-4.25-3.75-9.2-5.95-13.44-.27-.51-.45-1.29-.19-1.72,2.67-4.29,1.54-8.02.27-12.46-3.42-11.93-6.81-23.87-10.59-35.72-1.65-5.18-2.1-9.82.32-15.13,4.12-9.05,3.37-18.44-.44-27.63-.44-1.06-.4-2.46,0-3.55,1.13-3.17,2.42-10.39,3.79-13.77.39-.97,1.94-1.08,2.52-.18,3.16,4.9,6.14,13.6,9.16,18.28,2.59-.77,5-1.59,7.48-2.16.44-.1.87-.16,1.32-.18.27-.02.55-.02.83,0,.45.02.88.09,1.32.18,2.48.57,4.88,1.39,7.48,2.16,3.03-4.69,6-13.38,9.16-18.28.58-.89,2.13-.78,2.52.18,1.37,3.38,2.66,10.6,3.79,13.77.39,1.09.43,2.48,0,3.55-3.81,9.19-4.56,18.58-.44,27.63,2.42,5.31,1.97,9.95.32,15.13-3.78,11.85-7.17,23.79-10.59,35.72Z"/>
  </g>
</svg>